<svg version="1.1" viewBox="0.0 0.0 960.0 720.0" fill="none" stroke="none" stroke-linecap="square" stroke-miterlimit="10" xmlns:xlink="http://www.w3.org/1999/xlink" xmlns="http://www.w3.org/2000/svg"><clipPath id="p.0"><path d="m0 0l960.0 0l0 720.0l-960.0 0l0 -720.0z" clip-rule="nonzero"/></clipPath><g clip-path="url(#p.0)"><path fill="#000000" fill-opacity="0.0" d="m0 0l960.0 0l0 720.0l-960.0 0z" fill-rule="evenodd"/><path fill="#4d4d4a" d="m395.079 402.98016c0 -25.675232 20.813873 -46.489105 46.489105 -46.489105l443.0218 0c12.329651 0 24.154358 4.897949 32.87274 13.616333c8.718445 8.718414 13.616333 20.54309 13.616333 32.872772l0 185.95093c0 25.675232 -20.813843 46.489075 -46.489075 46.489075l-443.0218 0c-25.675232 0 -46.489105 -20.813843 -46.489105 -46.489075z" fill-rule="evenodd"/><path stroke="#e57373" stroke-width="17.244094488188978" stroke-linejoin="round" stroke-linecap="butt" d="m395.079 402.98016c0 -25.675232 20.813873 -46.489105 46.489105 -46.489105l443.0218 0c12.329651 0 24.154358 4.897949 32.87274 13.616333c8.718445 8.718414 13.616333 20.54309 13.616333 32.872772l0 185.95093c0 25.675232 -20.813843 46.489075 -46.489075 46.489075l-443.0218 0c-25.675232 0 -46.489105 -20.813843 -46.489105 -46.489075z" fill-rule="evenodd"/><path fill="#4d4d4a" d="m211.22253 273.6494c0 -25.675217 20.813889 -46.489105 46.489105 -46.489105l443.02176 0c12.329712 0 24.154358 4.897949 32.872803 13.616348c8.718384 8.718399 13.616333 20.543076 13.616333 32.872757l0 185.9509c0 25.675232 -20.813904 46.489136 -46.489136 46.489136l-443.02176 0c-25.675217 0 -46.489105 -20.813904 -46.489105 -46.489136z" fill-rule="evenodd"/><path stroke="#5c9bd6" stroke-width="17.244094488188978" stroke-linejoin="round" stroke-linecap="butt" d="m211.22253 273.6494c0 -25.675217 20.813889 -46.489105 46.489105 -46.489105l443.02176 0c12.329712 0 24.154358 4.897949 32.872803 13.616348c8.718384 8.718399 13.616333 20.543076 13.616333 32.872757l0 185.9509c0 25.675232 -20.813904 46.489136 -46.489136 46.489136l-443.02176 0c-25.675217 0 -46.489105 -20.813904 -46.489105 -46.489136z" fill-rule="evenodd"/><path fill="#4d4d4a" d="m28.919947 131.06917c0 -25.675232 20.813887 -46.489113 46.48912 -46.489113l443.0218 0c12.329651 0 24.154358 4.8979416 32.87274 13.616348c8.718384 8.718399 13.616333 20.543083 13.616333 32.872765l0 185.95091c0 25.675232 -20.813843 46.489105 -46.489075 46.489105l-443.0218 0c-25.675232 0 -46.48912 -20.813873 -46.48912 -46.489105z" fill-rule="evenodd"/><path stroke="#4caf50" stroke-width="17.244094488188978" stroke-linejoin="round" stroke-linecap="butt" d="m28.919947 131.06917c0 -25.675232 20.813887 -46.489113 46.48912 -46.489113l443.0218 0c12.329651 0 24.154358 4.8979416 32.87274 13.616348c8.718384 8.718399 13.616333 20.543083 13.616333 32.872765l0 185.95091c0 25.675232 -20.813843 46.489105 -46.489075 46.489105l-443.0218 0c-25.675232 0 -46.48912 -20.813873 -46.48912 -46.489105z" fill-rule="evenodd"/></g></svg>